<?xml version="1.0" standalone="no"?>
<!DOCTYPE svg PUBLIC "-//W3C//DTD SVG 1.1//EN" "http://www.w3.org/Graphics/SVG/1.1/DTD/svg11.dtd" >
<svg xmlns="http://www.w3.org/2000/svg">
<metadata>
<json>
<![CDATA[
{
	"fontFamily": "Blank-Theme-Icons",
	"description": "Font generated by IcoMoon.",
	"majorVersion": 1,
	"minorVersion": 0,
	"version": "Version 1.0",
	"fontId": "Blank-Theme-Icons",
	"psName": "Blank-Theme-Icons",
	"subFamily": "Regular",
	"fullName": "Blank-Theme-Icons"
}
]]>
</json>
</metadata>
<defs>
<font id="Blank-Theme-Icons" horiz-adv-x="1024">
<font-face units-per-em="1024" ascent="960" descent="-64" />
<missing-glyph horiz-adv-x="1024" />
<glyph unicode="&#x20;" horiz-adv-x="512" d="" />
<glyph unicode="&#xe600;" glyph-name="uniE600" data-tags="uniE600" d="M873.216 871.136c-131.36 62.848-288.128 5.664-349.952-127.68-4.32-9.28-8.032-20.896-11.328-34.4-3.296 13.504-7.008 25.12-11.264 34.4-61.888 133.344-218.496 190.528-349.888 127.68-131.2-62.848-187.488-221.92-125.664-355.296 61.856-133.344 486.688-515.68 486.688-515.68s0.032 0.448 0.096 1.152c0.096-0.704 0.128-1.152 0.128-1.152s425.024 382.336 486.88 515.68c61.792 133.376 5.664 292.448-125.696 355.296z" />
<glyph unicode="&#xe601;" glyph-name="uniE601" data-tags="uniE601" d="M725.066 850.102c-99.62-99.584-41.618-41.544-41.618-41.544l192.804-192.768c0 0-62.134-62.098 41.544 41.546s-93.222 292.388-192.73 192.768zM640.294 767.342l-455.974-455.972 0.658-0.586-108.142-293.048 299.666 101.376 0.622-0.622 1.572 1.61v0.038l454.4 454.4-192.806 192.806zM358.072 208.75l-157.622-66.56 74.094 150.088 76.69 76.726 83.528-83.566-76.69-76.69z" />
<glyph unicode="&#xe602;" glyph-name="uniE602" data-tags="uniE602" d="M511.904 960l-511.904-896h1024l-512.096 896zM574.24 707.616v-130.72l-33.376-257.088h-54.176l-36.064 257.088-1.984 130.72h125.6zM448.192 128.224v128.224h128.48v-128.224h-128.48z" />
<glyph unicode="&#xe603;" glyph-name="uniE603" data-tags="uniE603" d="M727.846 224.038c-59.61-57.528-137.326-87.004-216.026-87.076-70.29 0.072-140.398 23.514-198.694 71.864-74.058 61.658-112.092 149.942-112.2 239.322 0 14.884 1.098 29.658 3.182 44.36l-121.344-22.748c-0.328-7.204-0.584-14.372-0.584-21.614-0.072-122.99 52.918-245.798 155.098-330.57 80.018-66.67 177.774-99.366 274.504-99.366h0.256c112.422 0 224.328 44.434 307.492 129.828l79.688-79.544 0.622 249.49-263.606 0.696 91.61-94.648zM786.688 778.46c-80.092 66.67-177.846 99.328-274.542 99.328-111.616 0-222.794-43.666-305.846-127.89l-75.374 69.596-1.354-241.444 260.974-1.5-92.672 96.986c59.282 56.504 136.376 85.394 214.308 85.466 70.216-0.072 140.434-23.442 198.656-71.864 74.058-61.658 112.092-149.87 112.274-239.396 0-12.874-0.914-25.784-2.45-38.73l120.87 23.186c0.072 5.23 0.328 10.424 0.328 15.544-0.072 123.098-53.028 245.798-155.174 330.714z" />
<glyph unicode="&#xe604;" glyph-name="uniE604" data-tags="uniE604" d="M191.584-64h640.8v640.16h-640.8v-640.16zM636.672 457.024c0 19.808 16.064 35.808 35.904 35.808 19.808 0 35.872-16 35.872-35.808v-377.472c0-19.776-16.064-35.84-35.872-35.84-19.84 0-35.904 16.064-35.904 35.84v377.472zM476.096 457.024c0 19.808 16.064 35.808 35.84 35.808s35.84-16 35.84-35.808v-377.472c0-19.776-16.064-35.84-35.84-35.84s-35.84 16.064-35.84 35.84v377.472zM315.2 457.024c0 19.808 16 35.808 35.84 35.808 19.776 0 35.84-16 35.84-35.808v-377.472c0-19.776-16.064-35.84-35.84-35.84-19.84 0-35.84 16.064-35.84 35.84v377.472zM846.432 833.056h-142.464v21.792c0 58.080-39.52 105.152-97.6 105.152h-189.44c-58.016 0-96.96-47.072-96.96-105.152v-21.792h-142.464c-27.392 0-49.536-22.176-49.536-49.504v-143.968h768v143.968c0 27.328-22.080 49.504-49.536 49.504zM639.872 833.056h-256.384v29.408c0.064 18.496 14.976 33.472 33.44 33.536h189.44c18.432-0.064 33.408-15.040 33.504-33.536v-29.408z" />
<glyph unicode="&#xe605;" glyph-name="uniE605" data-tags="uniE605" d="M1023.040 556.992c-2.624 8.192-10.304 13.76-18.88 13.76h-361.408l-111.904 343.488c-2.688 8.192-10.272 13.76-18.88 13.76-8.544 0-16.192-5.568-18.88-13.76l-112.48-343.488h-360.768c-8.512 0-16.192-5.568-18.88-13.76-2.624-8.128 0.256-17.184 7.168-22.176l291.968-212.64-112.512-345.44c-2.656-8.192 0.256-17.184 7.232-22.24 6.912-4.992 16.416-4.992 23.328 0l293.792 213.248 293.28-213.248c3.584-2.56 7.52-3.872 11.616-3.872 4.192 0 8.288 1.312 11.712 3.872 7.136 5.056 9.92 14.016 7.2 22.24l-112.48 345.44 292.576 212.64c6.976 4.992 9.856 13.984 7.2 22.176z" />
<glyph unicode="&#xe606;" glyph-name="uniE606" data-tags="uniE606" d="M946.030 400.75v98.742l-14.006 4.536-105.764 34.488-28.232 68.206 54.308 114.762-69.816 69.814-13.166-6.618-99.11-50.396-68.206 28.234-42.788 119.514h-98.742l-4.572-13.97-34.524-105.764-68.096-28.198-114.798 54.272-69.85-69.852 6.618-13.128 50.36-99.182-28.16-68.058-119.516-42.824v-98.78l13.898-4.498 105.802-34.56 28.198-68.134-54.236-114.76 69.85-69.85 13.056 6.656 99.182 50.394 68.132-28.232 42.788-119.514h98.742l4.572 13.97 34.56 105.764 68.058 28.232 114.798-54.272 69.888 69.816-6.692 13.092-50.394 99.144 28.232 68.134 119.626 42.826zM512 309.722c-76.398 0-138.312 61.914-138.312 138.278 0 76.434 61.916 138.312 138.312 138.312 76.326 0 138.312-61.88 138.312-138.312 0-76.36-62.024-138.278-138.312-138.278z" />
<glyph unicode="&#xe607;" glyph-name="uniE607" data-tags="uniE607" d="M62.016 702.72l449.984-479.968 450.080 479.968z" />
<glyph unicode="&#xe608;" glyph-name="uniE608" data-tags="uniE608" d="M766.83 453.192l-425.142 437.174-74.57-69.962 356.572-366.554-366.556-376.904 72.96-71.314 411.318 422.912-0.402 0.402z" />
<glyph unicode="&#xe609;" glyph-name="uniE609" data-tags="uniE609" d="M105.856 690.4h812.288c22.112 0 40 17.952 40 40.032 0 22.144-17.888 40.064-40 40.064h-812.288c-22.112 0-40.032-17.92-40.032-40.064 0-22.080 17.92-40.032 40.032-40.032zM918.144 488.032h-812.288c-22.112 0-40.032-17.888-40.032-40.032s17.92-40.032 40.032-40.032h812.288c22.112 0 40 17.888 40 40.032s-17.856 40.032-40 40.032zM918.144 205.6h-812.288c-22.112 0-40.032-17.92-40.032-40.064s17.92-40.032 40.032-40.032h812.288c22.112 0 40 17.888 40 40.032s-17.856 40.064-40 40.064z" />
<glyph unicode="&#xe60a;" glyph-name="uniE60A" data-tags="uniE60A" d="M512.288 960c-178.24 0-322.688-144.48-322.688-322.752 0-178.208 322.688-701.248 322.688-701.248s322.752 523.040 322.752 701.248c0 178.272-144.384 322.752-322.752 322.752zM512.288 539.232c-54.112 0-98.048 43.904-98.048 98.016 0 54.144 43.968 98.048 98.048 98.048 54.208 0 98.176-43.904 98.176-98.048 0-54.112-43.968-98.016-98.176-98.016z" />
<glyph unicode="&#xe60b;" glyph-name="uniE60B" data-tags="uniE60B" d="M0 512.288h448.064v447.616h-448.064v-447.616zM576.256 959.904v-191.456h448.352v191.456h-448.352zM0-64h448.064v447.616h-448.064v-447.616zM576.256 512.288h448.352v191.456h-448.352v-191.456zM576.256 192.16h448.352v191.456h-448.352v-191.456zM576.256-64h448.352v191.424h-448.352v-191.424z" />
<glyph unicode="&#xe60c;" glyph-name="uniE60C" data-tags="uniE60C" d="M665.528 238.006c-18.432 0-90.99-112.054-130.486-112.054-10.568 0-15.726 9.288-15.726 18.432 0 21.138 14.482 54.088 22.308 73.874l94.794 256.768c47.544 127.782-13.092 162.048-69.742 162.048-76.434 0-144.896-38.182-197.558-88.248-17.152-17.152-75.046-72.412-75.046-96.182 0-7.864 7.862-17.152 17.152-17.152 23.626 0 86.894 114.616 135.606 114.616 10.57 0 22.382-11.848 13.166-35.51l-92.16-231.936c-9.288-22.308-54.088-130.342-54.088-193.572 0-50.030 32.952-72.376 80.384-72.376 133.046 0 287.086 163.29 287.086 201.51-0.038 11.85-9.178 19.784-15.688 19.784zM639.086 879.322c-57.894 0-108.032-47.36-108.032-105.326 0-54.016 35.584-89.6 89.674-89.6 59.1 0 109.24 44.8 109.24 105.4 0 54.016-38.144 89.528-90.88 89.528z" />
<glyph unicode="&#xe60d;" glyph-name="uniE60D" data-tags="uniE60D" d="M0 703.104h256.928v256.896h-256.928v-256.896zM383.52 703.104h257.056v256.896h-257.056v-256.896zM767.136 960v-256.896h256.992v256.896h-256.992zM0 319.488h256.928v256.928h-256.928v-256.928zM383.52 319.488h257.056v256.928h-257.056v-256.928zM767.136 319.488h256.992v256.928h-256.992v-256.928zM0-64h256.928v256h-256.928v-256zM383.52-64h257.056v256h-257.056v-256zM767.136-64h256.992v256h-256.992v-256z" />
<glyph unicode="&#xe60e;" glyph-name="uniE60E" data-tags="uniE60E" d="M510.592 900.928c-249.376 0-451.52-202.144-451.52-451.52 0-249.344 202.144-451.52 451.52-451.52 249.344 0 451.52 202.176 451.52 451.52 0 249.376-202.144 451.52-451.52 451.52zM463.872 189.152l-251.872 256.064 64.416 51.872 145.728-114.176c59.52 70.848 192 212.064 374.624 323.968l15.392-35.584c-167.616-154.176-304.96-371.2-348.288-482.144z" />
<glyph unicode="&#xe60f;" glyph-name="uniE60F" data-tags="uniE60F" d="M0 482.24h1024v-68.128h-1024v68.128z" />
<glyph unicode="&#xe610;" glyph-name="uniE610" data-tags="uniE610" d="M956.526 852.298c-285.11-174.776-491.96-395.264-584.96-505.894l-227.584 178.322-100.534-81.078 393.326-399.946c67.694 173.348 282.112 512.22 543.744 752.97l-23.99 55.626z" />
<glyph unicode="&#xe611;" glyph-name="uniE611" data-tags="uniE611" d="M441.152 166.496c-52.704 0-95.392-42.752-95.392-95.424s42.688-95.328 95.392-95.328c52.672 0 95.392 42.656 95.392 95.328s-42.72 95.424-95.392 95.424zM770.688 166.496c-52.8 0-95.52-42.752-95.52-95.424s42.688-95.328 95.52-95.328c52.576 0 95.264 42.656 95.264 95.328s-42.688 95.424-95.264 95.424zM919.712 700.64c-244.768 0-639.712 0-639.712 0s-38.304 105.216-74.784 169.728c-28.256 49.952-86.688 47.936-86.688 47.936-40.192 0-66.048-24.576-66.048-64.8 0-40.192 31.84-72.32 72.064-72.32l16.992-0.16 190.4-524.384 533.664-0.416c0 0 97.568 399.264 92.544 383.776 17.888 55.36-4.896 60.64-38.432 60.64zM333.056 514.688c-28 0-50.72 22.72-50.72 50.752s22.72 50.784 50.72 50.784c28.032 0 50.72-22.752 50.72-50.784s-22.688-50.752-50.72-50.752zM441.536 345.28c-28.032 0-50.752 22.752-50.752 50.784 0 27.968 22.72 50.72 50.752 50.72 28 0 50.72-22.752 50.72-50.72 0.032-28.032-22.72-50.784-50.72-50.784zM497.312 514.688c-28 0-50.752 22.72-50.752 50.752s22.72 50.784 50.752 50.784c28 0 50.72-22.752 50.72-50.784s-22.72-50.752-50.72-50.752zM605.792 345.28c-28 0-50.72 22.752-50.72 50.784 0 27.968 22.72 50.72 50.72 50.72 28.096 0 50.88-22.752 50.88-50.72 0-28.032-22.784-50.784-50.88-50.784zM661.696 514.688c-28 0-50.816 22.72-50.816 50.752s22.816 50.784 50.816 50.784c28 0 50.656-22.752 50.656-50.784s-22.656-50.752-50.656-50.752zM770.080 345.28c-27.968 0-50.656 22.752-50.656 50.784 0 27.968 22.72 50.72 50.656 50.72 28 0 50.816-22.752 50.816-50.72 0-28.032-22.816-50.784-50.816-50.784zM825.92 514.688c-28.032 0-50.72 22.72-50.72 50.752s22.688 50.784 50.72 50.784c28.096 0 50.752-22.752 50.752-50.784s-22.656-50.752-50.752-50.752z" />
<glyph unicode="&#xe612;" glyph-name="uniE612" data-tags="uniE612" d="M285.984 665.536c20.704 0 37.6 16.8 37.6 37.6v135.36c0 20.736-16.864 37.568-37.6 37.568-20.768 0-37.6-16.8-37.6-37.568v-135.36c0-20.8 16.832-37.6 37.6-37.6zM788.768 766.688v-0.64c15.552-13.888 25.44-34.016 25.44-56.576 0-41.632-33.76-75.424-75.488-75.424s-75.52 33.824-75.52 75.424c0 22.528 9.952 42.688 25.568 56.576v0.64h-352.832v-0.64c15.648-13.888 25.536-34.016 25.536-56.576 0-41.632-33.792-75.424-75.456-75.424-41.728 0-75.488 33.824-75.488 75.424 0 22.528 9.856 42.688 25.504 56.576v0.64h-171.072v-767.2h894.496v767.2h-170.688zM897.44 65.664h-766.304v509.44h766.304v-509.44zM738.72 665.536c20.768 0 37.568 16.8 37.568 37.6v135.36c0 20.736-16.8 37.568-37.568 37.568-20.704 0-37.632-16.8-37.632-37.568v-135.36c0-20.8 16.928-37.6 37.632-37.6zM698.432 368.256h-95.872v-95.744h95.904v95.744zM698.432 512.224h-95.872v-95.648h95.904v95.648zM698.432 228.224h-95.872v-95.744h95.904v95.744zM833.312 512.224h-95.84v-95.648h95.84v95.648zM833.312 368.256h-95.84v-95.744h95.84v95.744zM563.392 512.224h-95.744v-95.648h95.744v95.648zM293.6 368.256h-95.712v-95.744h95.712v95.744zM428.576 228.224h-95.776v-95.744h95.744v95.744zM293.6 228.224h-95.712v-95.744h95.712v95.744zM563.392 368.256h-95.744v-95.744h95.744v95.744zM563.392 228.224h-95.744v-95.744h95.744v95.744zM428.576 368.256h-95.776v-95.744h95.744v95.744zM428.576 512.224h-95.776v-95.648h95.744v95.648z" />
<glyph unicode="&#xe613;" glyph-name="uniE613" data-tags="uniE613" d="M512 889.454l-401.628-486.582h262.108v-396.288h279.15v396.288h262.034z" />
<glyph unicode="&#xe614;" glyph-name="uniE614" data-tags="uniE614" d="M651.558 493.166v396.288h-279.186v-396.288h-261.998l401.664-486.584 401.626 486.584z" />
<glyph unicode="&#xe615;" glyph-name="uniE615" data-tags="uniE615" d="M974.464 71.744c0 0-156.352 160.576-218.656 222.624-27.104 27.104-45.664 45.504-45.664 45.504 21.12 30.176 37.632 63.232 49.408 98.784 11.68 35.52 17.504 72.992 17.504 112.384 0 50.72-9.632 98.4-28.896 143.104-19.328 44.64-45.568 83.648-78.912 116.864-33.28 33.376-72.288 59.648-116.992 78.944-44.672 19.328-92.352 28.992-143.072 28.992-50.688 0-98.368-9.696-143.104-28.992-44.672-19.296-83.424-45.568-116.384-78.944-32.832-33.216-59.040-72.256-78.304-116.896-19.328-44.672-28.992-92.384-28.992-143.104 0-50.752 9.696-98.432 28.992-143.104 19.264-44.608 45.44-83.584 78.304-116.928 32.928-33.216 71.712-59.552 116.352-78.912 44.736-19.328 92.416-28.896 143.104-28.896 39.36 0 76.832 5.76 112.416 17.536 35.552 11.712 68.576 28.288 98.72 49.44 0 0 17.152-17.024 42.4-42.432 69.024-69.28 220.832-226.784 220.832-226.784 22.912-9.984 59.424 0.672 77.696 16.128 18.080 15.552 28.192 47.968 13.248 74.688zM655.584 446.56c-14.016-32.384-33.152-60.672-57.248-84.672-24.192-24.096-52.384-43.232-84.672-57.216-32.256-14.048-66.784-21.056-103.36-21.056-37.408 0-72.192 7.008-104.512 21.056-32.32 14.016-60.576 33.12-84.672 57.216-24.096 24.032-43.232 52.32-57.216 84.672-14.016 32.224-21.024 67.136-21.024 104.48 0 36.544 7.008 71.264 21.024 103.968 13.984 32.672 33.12 61.12 57.216 85.184 24.096 24.192 52.352 43.328 84.672 57.216 32.32 14.112 67.104 21.024 104.512 21.024 36.576 0 71.104-6.912 103.36-21.024 32.288-13.92 60.48-33.024 84.672-57.216 24.064-24.064 43.232-52.512 57.248-85.184 14.016-32.704 20.96-67.424 20.96-103.968 0.032-37.344-6.912-72.256-20.96-104.48z" />
<glyph unicode="&#xe616;" glyph-name="uniE616" data-tags="uniE616" d="M966.51 830.354l-72.046 71.936-382.5-382.536-382.5 382.536-71.972-71.936 382.536-382.538-382.246-382.28 71.936-71.864 382.28 382.208 382.246-382.208 71.864 71.864-382.208 382.246z" />
<glyph unicode="&#xe617;" glyph-name="uniE617" data-tags="uniE617" d="M400.42 453.778l356.426 366.63-74.496 69.962-425.216-437.176 436.918-447.56 72.778 71.314z" />
<glyph unicode="&#xe618;" glyph-name="uniE618" data-tags="uniE618" d="M512 670.336l-449.984-479.968h900.064z" />
<glyph unicode="&#xe619;" glyph-name="uniE619" data-tags="uniE619" d="M193.248 902.24v-908.48l625.856 454.24z" />
<glyph unicode="&#xe61a;" glyph-name="uniE61A" data-tags="uniE61A" d="M205.984 448l625.824-454.24v908.48z" />
<glyph unicode="&#xe61b;" glyph-name="uniE61B" data-tags="uniE61B" d="M0 0.928h127.968v959.072h-127.968v-959.072zM1024.16 960h-831.648v-575.776h831.648l-276.416 284.064 276.416 291.712z" />
<glyph unicode="&#xe61c;" glyph-name="uniE61C" data-tags="uniE61C" d="M1024 482.24h-477.024v477.76h-68.032v-477.76h-478.944v-68.128h478.944v-478.112h68.032v478.112h477.024z" />
<glyph unicode="&#xe61d;" glyph-name="uniE61D" data-tags="uniE61D" d="M511.936 456.128l442.976 311.68c-5.312 1.056-10.688 1.696-16.256 1.696h-853.312c-5.6 0-11.008-0.64-16.288-1.696l442.88-311.68zM513.856 336.992l-1.92 2.816-1.888-2.816-509.12 358.272c-0.352-3.2-0.928-6.4-0.928-9.632v-535.424c0-47.808 38.208-86.624 85.344-86.624h853.312c47.2 0 85.376 38.816 85.376 86.624v535.424c0 3.264-0.576 6.432-0.992 9.632l-509.184-358.272z" />
<glyph unicode="&#xe61e;" glyph-name="uniE61E" data-tags="uniE61E" d="M255.168 63.552v255.264h-255.168v-255.264h255.168zM638.496 832.48h-253.856v-768.896h253.856v768.896zM1023.168 574.944h-254.752v-511.36h254.752v511.36z" />
<glyph unicode="&#xe61f;" glyph-name="uniE61F" data-tags="uniE61F" d="M510.592 900.928c-249.376 0-451.52-202.144-451.52-451.52 0-249.344 202.144-451.52 451.52-451.52 249.344 0 451.52 202.176 451.52 451.52 0 249.376-202.144 451.52-451.52 451.52zM744.32 289.664l-74.208-74.208-158.176 158.112-158.112-158.080-74.24 74.272 158.048 158.048-158.272 158.24 74.272 74.272 158.24-158.272 158.368 158.368 74.304-74.304-158.4-158.336 158.176-158.112z" />
<glyph unicode="&#xe620;" glyph-name="uniE620" data-tags="uniE620" d="M525.496 837.376c-227.328 4.498-414.428-135.606-417.938-312.87-1.17-61.658 19.968-119.626 57.6-169.288l-9.838 9.91c64.768-83.236-62.208-306.616-62.208-306.616l284.562 140.69c45.020-14.19 88.32-23.846 139.448-24.904 227.328-4.462 410.222 156.71 413.696 334.008 3.51 177.262-177.92 324.608-405.322 329.070z" />
<glyph unicode="&#xe621;" glyph-name="uniE621" data-tags="uniE621" d="M518.326 570.844l403.674-392.448 77.092 82.14-481.426 468.042-492.726-480.952 78.52-80.202z" />
<glyph unicode="&#xe622;" glyph-name="uniE622" data-tags="uniE622" d="M505.638 325.158l-403.64 392.448-77.056-82.14 481.354-468.042 492.8 480.952-78.664 80.202z" />
<glyph unicode="&#xe623;" glyph-name="uniE623" data-tags="uniE623" d="M512-66.496c-282.816 0-512 229.248-512 512s229.184 512 512 512c282.752 0 512-229.248 512-512s-229.216-512-512-512zM512 895.52c-248.096 0-450.016-201.92-450.016-450.016s201.92-450.048 450.016-450.048 449.984 201.92 449.984 450.016-201.856 450.048-449.984 450.048zM640.48 438.304l-31.2-24.256c-16.992-13.248-28.256-28.64-33.824-46.304-3.552-11.2-6.016-24.512-6.336-48h-119.424c1.76 49.696 7.008 79.936 14.656 98.944 7.616 18.944 27.264 40.736 58.88 65.44l32.064 25.056c10.56 8 19.072 16.64 25.504 26.048 11.744 16.128 17.568 33.952 17.568 53.312 0 22.304-6.496 42.624-19.552 60.992-12.992 18.368-36.8 27.616-71.424 27.616-34.016 0-58.112-11.36-72.32-34.016s-21.184-43.328-21.184-67.68h-127.36c3.488 83.744 32.64 140.32 87.552 175.264 34.688 22.304 77.312 33.504 127.808 33.504 66.432 0 121.568-15.872 165.504-47.616 43.936-31.68 69.6-96.864 69.6-159.2 0-38.176-13.248-52.192-32.288-78.368-11.168-15.84-32.544-36.096-64.224-60.736zM575.456 128h-127.008v127.36h127.008v-127.36z" />
<glyph unicode="&#xe624;" glyph-name="uniE624" data-tags="uniE624" d="M833.312 256v271.392h-641.344v-271.392h-191.968v398.688c0 27.52 22.336 49.824 49.888 49.824h924.288c27.488 0 49.824-22.304 49.824-49.824v-398.688h-190.688zM928.608 649.248c-22.048 0-39.84-17.856-39.84-39.872s17.792-39.904 39.84-39.904c21.984 0 39.936 17.92 39.936 39.904 0 22.016-17.984 39.872-39.936 39.872zM255.456 960h512v-192.384h-512v192.384zM321.952 63.328h382.464v384.672h63.648v-448.16h-511.968v448.16h65.824v-384.672z" />
<glyph unicode="&#xe625;" glyph-name="uniE625" data-tags="uniE625" d="M1004.16 570.752h-361.408l-111.904 343.488c-2.688 8.192-10.272 13.76-18.88 13.76-8.544 0-16.192-5.568-18.88-13.76l-112.48-343.488h-360.768c-8.512 0-16.192-5.568-18.88-13.76-2.624-8.128 0.256-17.184 7.168-22.176l291.968-212.64-112.512-345.44c-2.656-8.192 0.256-17.184 7.232-22.24 6.912-4.992 16.416-4.992 23.328 0l293.792 213.248 293.28-213.248c3.584-2.56 7.52-3.872 11.616-3.872 4.192 0 8.288 1.312 11.712 3.872 7.136 5.056 9.92 14.016 7.2 22.24l-112.48 345.44 292.576 212.64c6.976 4.992 9.856 14.016 7.2 22.176-2.624 8.192-10.336 13.76-18.88 13.76zM666.848 340.512l96.416-296.128-251.264 182.72-251.936-182.88 96.512 296.256-250.336 182.272h309.152l96.512 294.752 96.032-294.752h309.664l-250.752-182.24z" />
<glyph unicode="&#xe626;" glyph-name="uniE626" data-tags="uniE626" d="M638.752 447.648v255.52h-253.504v-255.52h-179.488l306.336-377.216 306.176 377.216zM512.032 960c-282.784 0-512-229.216-512-511.968 0-282.784 229.216-512.032 512-512.032 282.752 0 512 229.248 512 512.032 0 282.752-229.248 511.968-512 511.968zM512.032 0c-247.040 0-448 200.992-448 448.032 0 247.008 200.96 447.968 448 447.968s448-200.96 448-447.968c0-247.040-200.96-448.032-448-448.032z" />
<glyph unicode="&#xe627;" glyph-name="uniE627" data-tags="uniE627" d="M511.964 881.188c-239.214 0-433.152-193.938-433.152-433.188s193.938-433.19 433.152-433.19c239.25 0 433.19 193.938 433.19 433.19s-193.902 433.19-433.19 433.19zM511.964 839.826c216.102 0 391.826-175.762 391.826-391.826 0-90.368-31.014-173.422-82.65-239.798-6.216 2.268-12.434 4.39-18.394 6.912-39.496 16.53-83.418 35.914-122.842 52.188-11.264 3.072-22.528 6.144-33.792 9.216-13.384 9.178-26.66 39.972-33.828 55.332-7.096 1.024-14.298 2.010-21.504 2.962 1.062 23.736 15.762 25.088 21.504 43.082 5.082 15.908 0.586 36.682 8.558 51.456 5.558 10.24 18.25 10.24 24.466 19.090 5.706 7.9 9.544 21.834 11.336 31.598 3.218 17.81 6.034 42.24-2.414 59.976-4.864 10.13-7.936 11.154-9.288 23.478-1.646 15.032 4.424 63.782 4.682 74.35 0.586 27.356-0.11 29.586-6.692 56.246 0 0-8.010 24.174-20.59 31.452l-25.16 4.316-15.544 14.372c-62.61 38.546-129.754 11.52-165.668-2.998-51.822-16.86-84.59-67.584-61.734-175.91 3.914-18.578-10.13-26.842-9.216-36.936 2.084-22.090 2.414-75.228 23.296-88.248 1.938-1.206 16.75-4.938 16.678-3.876 2.012-21.504 4.096-43.044 6.108-64.476 5.23-14.298 17.738-15.908 21.358-36.096l-15.982-3.84c-7.204-15.36-20.37-46.154-33.792-55.332-11.3-3.034-22.564-6.106-33.83-9.178-39.462-16.238-83.31-35.658-122.844-52.188-2.158-0.878-4.426-1.572-6.582-2.414-49.518 65.572-79.25 146.908-79.25 235.264 0 216.064 175.762 391.826 391.79 391.826z" />
<glyph unicode="&#xe628;" glyph-name="uniE628" data-tags="uniE628" d="M189.6 645.184l-186.848 156.928-0.992-643.936 633.376 112.672-178.432 149.92c364.224 335.040 455.808-16.256 492.544-409.568 131.872 1148.128-459.68 890.656-759.648 633.984z" />
<glyph unicode="&#xe629;" glyph-name="uniE629" data-tags="uniE629" d="M856.864 448h-40.16v192.352c0 86.72-32.896 166.208-87.264 224.288-54.112 58.112-131.264 95.424-216.32 95.36-85.088 0.064-162.24-37.248-216.384-95.36-54.368-58.080-87.264-137.568-87.296-224.288v-192.352h-41.632c-21.632 0-39.168-17.504-39.168-39.168v-433.6c0-21.696 17.536-39.232 39.168-39.232h689.056c21.6 0 39.168 17.536 39.168 39.264v433.6c0 21.632-17.568 39.136-39.168 39.136zM353.632 640.352c0 50.048 18.944 94.336 48.384 125.856 29.696 31.456 68.288 49.568 111.104 49.632 42.752-0.064 81.376-18.144 111.072-49.632 29.408-31.488 48.352-75.776 48.352-125.856v-192.352h-318.88v192.352z" />
<glyph unicode="&#xe62a;" glyph-name="uniE62A" data-tags="uniE62A" d="M301.792 633.888h-224.384c-18.080 0-32.768-14.624-32.768-32.736v-160c0-18.112 14.688-32.736 32.768-32.736h224.384c18.112 0 32.864 14.624 32.864 32.736v160c0 18.112-14.752 32.736-32.864 32.736zM301.792 342.112h-158.752c-18.112 0-32.864-14.624-32.864-32.736v-340.64c-0.032-18.112 14.72-32.736 32.864-32.736h158.752c18.112 0 32.864 14.624 32.864 32.736v340.64c0 18.112-14.752 32.736-32.864 32.736zM946.656 633.888h-489.76c-18.112 0-32.736-14.624-32.736-32.736v-160c0-18.112 14.624-32.736 32.736-32.736h489.76c17.984 0 32.736 14.624 32.736 32.736v160c0 18.112-14.72 32.736-32.736 32.736zM879.040 338.752h-421.12c-18.112 0-32.736-14.688-32.736-32.8v-337.184c0-18.112 14.624-32.736 32.736-32.736h421.12c18.112 0 32.736 14.624 32.736 32.736v337.184c0 18.112-14.624 32.8-32.736 32.8zM503.904 671.36c38.24-7.008 75.136-11.072 109.632-11.072 173.376 0 267.36 93.184 267.872 180.928 0.256 56.512-41.504 117.76-136.736 118.752-127.616 0-206.624-90.112-247.744-156.992-41.888 66.624-121.248 154.944-249.12 154.944-92.512-0.928-134.4-62.176-134.016-118.656 0.352-87.776 94.496-181.024 267.872-181.024v0c37.504 0 77.76 4.256 119.744 12.672l2.496 0.448zM746.528 878.016c16-0.128 53.12-4 52.864-36.384-0.128-41.248-57.984-99.36-185.888-99.36-17.632 0-36 1.12-55.264 3.36 29.152 51.296 90.432 132.384 188.288 132.384zM381.664 740.256v0c-127.872 0-185.76 58.112-185.984 99.36-0.16 32.32 36.992 36.192 54.72 36.384 96.736 0 157.632-81.12 186.368-132.448-19.104-2.176-37.472-3.296-55.104-3.296z" />
<glyph unicode="&#xe62b;" glyph-name="uniE62B" data-tags="uniE62B" d="M364.512 806.816c0-18.496-15.008-33.44-33.376-33.44h-19.552c-18.432 0-33.44 14.944-33.44 33.44v119.744c0 18.432 15.008 33.44 33.44 33.44h19.552c18.368 0 33.376-15.008 33.376-33.44v-119.744zM746.144 806.816c0-18.496-15.008-33.44-33.376-33.44h-19.488c-18.496 0-33.376 14.944-33.376 33.44v119.744c0 18.432 14.848 33.44 33.376 33.44h19.488c18.368 0 33.376-15.008 33.376-33.44v-119.744zM797.632 506.304l-67.872 55.328-267.36-327.744-142.624 113.376-50.56-63.456 210.368-167.296zM943.904 868h-124.864v-52.128c0-55.36-45.12-100.384-100.256-100.384h-19.616c-55.36 0-100.256 44.992-100.256 100.384v52.128h-171.008v-52.128c0-55.36-44.992-100.384-100.256-100.384h-19.52c-55.328 0-100.32 44.992-100.32 100.384v52.128h-127.616c-18.432 0-33.44-15.008-33.44-33.376v-865.184c0-18.432 15.008-33.44 33.44-33.44h863.68c18.368 0 33.376 15.008 33.376 33.44v865.184c0.032 18.368-14.976 33.376-33.344 33.376zM877.024 85.184c0-18.496-15.008-33.44-33.504-33.44h-663.008c-18.496 0-33.504 14.944-33.504 33.44v504.192c0 18.496 15.008 33.376 33.504 33.376h663.008c18.496 0 33.504-14.88 33.504-33.376v-504.192z" />
<glyph unicode="&#xe900;" glyph-name="GenuineBrands" data-tags="% Genuine Brands" d="M512 788.992c-99.328 0-180.224-80.896-180.224-180.224s80.896-181.248 180.224-181.248 180.224 80.896 180.224 180.224-80.896 181.248-180.224 181.248zM512 468.48c-77.824 0-140.288 62.464-140.288 140.288s62.464 139.264 140.288 139.264 140.288-62.464 140.288-140.288-62.464-139.264-140.288-139.264zM890.88 96.768l-155.648 310.272c50.176 55.296 77.824 125.952 77.824 200.704-1.024 165.888-135.168 301.056-301.056 301.056s-300.032-135.168-300.032-300.032c0-74.752 27.648-145.408 77.824-200.704l-156.672-311.296c-3.072-7.168-2.048-15.36 2.048-21.504 5.12-6.144 13.312-8.192 20.48-6.144l123.904 35.84 52.224-105.472c3.072-7.168 10.24-11.264 18.432-11.264s14.336 4.096 18.432 11.264l143.36 283.648 142.336-284.672c3.072-7.168 10.24-11.264 18.432-11.264 7.168 0 14.336 4.096 18.432 11.264l52.224 105.472 123.904-35.84c7.168-2.048 15.36 0 20.48 6.144s6.144 15.36 3.072 22.528zM351.232 51.712l-41.984 83.968c-3.072 7.168-10.24 11.264-18.432 11.264-2.048 0-4.096 0-5.12-1.024l-96.256-27.648 129.024 259.072c0 0 1.024-1.024 2.048-1.024 2.048-1.024 3.072-2.048 5.12-4.096 5.12-4.096 11.264-8.192 16.384-12.288 2.048-2.048 5.12-3.072 7.168-5.12 5.12-4.096 11.264-7.168 17.408-10.24 2.048-1.024 4.096-2.048 6.144-3.072 8.192-4.096 15.36-8.192 23.552-11.264 2.048-1.024 3.072-1.024 5.12-2.048 6.144-3.072 13.312-5.12 20.48-7.168 3.072-1.024 5.12-2.048 8.192-2.048 6.144-2.048 12.288-3.072 19.456-5.12 2.048 0 4.096-1.024 7.168-1.024 8.192-2.048 16.384-3.072 25.6-4.096l-131.072-257.024zM486.4 348.672c-9.216 1.024-18.432 2.048-27.648 4.096-49.152 10.24-94.208 34.816-131.072 70.656-49.152 49.152-75.776 114.688-75.776 184.32 0 144.384 116.736 261.12 260.096 261.12s260.096-116.736 260.096-260.096c0-69.632-26.624-135.168-75.776-184.32s-114.688-76.8-184.32-76.8c-8.192 0-17.408 1.024-25.6 1.024zM738.304 146.944c-9.216 3.072-19.456-2.048-23.552-10.24l-41.984-83.968-129.024 257.024c8.192 1.024 17.408 2.048 25.6 4.096 2.048 0 5.12 1.024 7.168 1.024 6.144 1.024 13.312 3.072 19.456 5.12 3.072 1.024 5.12 1.024 8.192 2.048 7.168 2.048 13.312 4.096 20.48 7.168 1.024 1.024 3.072 1.024 4.096 2.048 8.192 3.072 16.384 7.168 23.552 11.264 2.048 1.024 4.096 2.048 6.144 3.072 6.144 3.072 12.288 7.168 17.408 10.24 2.048 1.024 4.096 3.072 7.168 4.096 6.144 4.096 11.264 8.192 17.408 12.288 1.024 1.024 3.072 2.048 4.096 3.072 1.024 0 1.024 1.024 2.048 1.024l129.024-259.072-97.28 29.696z" />
<glyph unicode="&#xe901;" glyph-name="Account" data-tags="Account" d="M510.976 394.752c136.192 0 246.784 110.592 246.784 245.76 0 136.192-110.592 245.76-246.784 245.76s-246.784-110.592-246.784-245.76c0-135.168 110.592-245.76 246.784-245.76zM510.976 839.168c100.352 0 197.632-99.328 197.632-198.656s-97.28-196.608-197.632-196.608c-100.352 0-197.632 97.28-197.632 196.608s97.28 198.656 197.632 198.656zM663.552 351.744h-303.104c-169.984 0-309.248-138.24-309.248-309.248 0-18.432 14.336-32.768 32.768-32.768h856.064c18.432 0 32.768 14.336 32.768 32.768 0 169.984-138.24 309.248-309.248 309.248zM102.4 58.88c16.384 118.784 134.144 242.688 258.048 242.688h303.104c123.904 1.024 241.664-122.88 258.048-242.688h-819.2z" />
<glyph unicode="&#xe902;" glyph-name="arrowleft" data-tags="arrowleft" d="M228.267 507.733l420.267 436.651c9.204 9.652 22.162 15.654 36.523 15.654s27.319-6.002 36.504-15.634l0.019-0.020 30.976-32.171c9.351-9.882 15.101-23.256 15.101-37.973s-5.749-28.091-15.125-37.999l0.024 0.026-352.939-366.933 353.365-366.933c9.351-9.882 15.101-23.256 15.101-37.973s-5.749-28.091-15.125-37.999l0.024 0.026-30.976-32.171c-9.204-9.652-22.162-15.654-36.523-15.654s-27.319 6.002-36.504 15.634l-0.019 0.020-420.693 437.077c-9.397 9.941-15.174 23.389-15.174 38.187s5.777 28.246 15.199 38.213l-0.025-0.026z" />
<glyph unicode="&#xe903;" glyph-name="arrowright" data-tags="arrowright" d="M753.067 507.733l-420.267 436.651c-9.204 9.652-22.162 15.654-36.523 15.654s-27.319-6.002-36.504-15.634l-0.019-0.020-30.976-32.171c-9.37-9.874-15.133-23.251-15.133-37.973s5.763-28.099 15.156-37.998l-0.023 0.024 352.939-366.933-353.365-366.933c-9.351-9.882-15.101-23.256-15.101-37.973s5.749-28.091 15.125-37.999l-0.024 0.026 30.976-32.171c9.204-9.652 22.162-15.654 36.523-15.654s27.319 6.002 36.504 15.634l0.019 0.020 420.693 437.077c9.397 9.941 15.174 23.389 15.174 38.187s-5.777 28.246-15.199 38.213l0.025-0.026z" />
<glyph unicode="&#xe904;" glyph-name="BackArrow" data-tags="Back Arrow" d="M723.695-37.649c-21.709-20.139 89.566 85.333 89.566 85.333l-433.835 412.809 437.658 415.881-60.416 57.754c-16.384 15.633-4.574 26.351-27.307 26.214-34.733-22.318-63.813-50.18-86.8-82.659l-0.65-0.968-436.907-417.929s693.794-645.734 518.69-496.435z" />
<glyph unicode="&#xe905;" glyph-name="BestCustomerSupport" data-tags="Best Customer Support" d="M619.52 353.792c1.024 8.192-5.12 16.384-13.312 17.408s-16.384-5.12-17.408-13.312c-1.024-5.12-9.216-48.128-76.8-48.128s-75.776 43.008-76.8 48.128c-1.024 8.192-9.216 14.336-17.408 13.312s-14.336-9.216-13.312-17.408c3.072-25.6 30.72-74.752 107.52-74.752s104.448 49.152 107.52 74.752zM803.84 478.72c0 178.176-131.072 322.56-291.84 322.56s-291.84-144.384-291.84-322.56 131.072-322.56 291.84-322.56c160.768 0 291.84 144.384 291.84 322.56zM250.88 478.72c0 160.768 116.736 291.84 261.12 291.84s261.12-131.072 261.12-291.84c0-160.768-116.736-291.84-261.12-291.84s-261.12 131.072-261.12 291.84zM481.28 540.16c0 33.792-27.648 61.44-61.44 61.44s-61.44-27.648-61.44-61.44c0-33.792 27.648-61.44 61.44-61.44s61.44 27.648 61.44 61.44zM389.12 540.16c0 17.408 13.312 30.72 30.72 30.72s30.72-13.312 30.72-30.72c0-17.408-13.312-30.72-30.72-30.72s-30.72 13.312-30.72 30.72zM604.16 478.72c33.792 0 61.44 27.648 61.44 61.44s-27.648 61.44-61.44 61.44c-33.792 0-61.44-27.648-61.44-61.44s27.648-61.44 61.44-61.44zM604.16 570.88c17.408 0 30.72-13.312 30.72-30.72s-13.312-30.72-30.72-30.72c-17.408 0-30.72 13.312-30.72 30.72s13.312 30.72 30.72 30.72zM910.336 569.856c-2.048 37.888-17.408 145.408-101.376 230.4-71.68 71.68-175.104 108.544-307.2 108.544s-233.472-36.864-301.056-108.544c-78.848-84.992-88.064-192.512-88.064-231.424-34.816-7.168-61.44-37.888-61.44-74.752v-92.16c0-41.984 34.816-76.8 76.8-76.8s76.8 34.816 76.8 76.8v92.16c0 36.864-26.624 68.608-61.44 74.752 0 34.816 8.192 133.12 79.872 209.92 61.44 65.536 155.648 99.328 278.528 99.328 123.904 0 219.136-33.792 285.696-99.328 74.752-75.776 90.112-174.080 93.184-208.896-34.816-7.168-60.416-37.888-60.416-74.752v-92.16c0-36.864 25.6-67.584 60.416-74.752-3.072-20.48-12.288-59.392-35.84-101.376-46.080-81.92-121.856-131.072-226.304-148.48-7.168 35.84-38.912 62.464-75.776 62.464-41.984 0-76.8-34.816-76.8-76.8s34.816-76.8 76.8-76.8c37.888 0 68.608 26.624 75.776 62.464 0 0 1.024 0 1.024 0 1.024 0 1.024 0 2.048 0 235.52 36.864 279.552 225.28 286.72 276.48 35.84 6.144 63.488 37.888 63.488 75.776v92.16c1.024 36.864-25.6 68.608-61.44 75.776zM174.080 494.080v-92.16c0-25.6-20.48-46.080-46.080-46.080s-46.080 20.48-46.080 46.080v92.16c0 25.6 20.48 46.080 46.080 46.080s46.080-20.48 46.080-46.080zM542.72 17.92c-25.6 0-46.080 20.48-46.080 46.080s20.48 46.080 46.080 46.080c25.6 0 46.080-20.48 46.080-46.080s-20.48-46.080-46.080-46.080zM942.080 401.92c0-25.6-20.48-46.080-46.080-46.080s-46.080 20.48-46.080 46.080v92.16c0 25.6 20.48 46.080 46.080 46.080s46.080-20.48 46.080-46.080v-92.16z" />
<glyph unicode="&#xe906;" glyph-name="callfooter" data-tags="call footer" d="M670.72 381.44c-11.264 11.264-24.576 18.432-38.912 18.432s-27.648-6.144-39.936-17.408l-36.864-36.864c-3.072 2.048-6.144 3.072-9.216 5.12-4.096 2.048-8.192 4.096-11.264 6.144-34.816 21.504-65.536 50.176-95.232 87.040-14.336 18.432-24.576 33.792-31.744 49.152 9.216 9.216 18.432 17.408 26.624 26.624 3.072 3.072 6.144 6.144 10.24 10.24 24.576 24.576 24.576 56.32 0 80.896l-31.744 31.744c-4.096 4.096-7.168 7.168-11.264 11.264-7.168 7.168-14.336 14.336-21.504 21.504-11.264 11.264-24.576 17.408-38.912 17.408s-27.648-6.144-39.936-17.408c0 0 0 0 0 0l-39.936-39.936c-15.36-15.36-23.552-32.768-25.6-54.272-3.072-33.792 7.168-65.536 15.36-86.016 18.432-51.2 47.104-98.304 89.088-148.48 51.2-62.464 112.64-110.592 182.272-144.384 26.624-12.288 62.464-27.648 102.4-29.696 2.048 0 5.12 0 7.168 0 26.624 0 49.152 9.216 66.56 28.672 0 0 0 0 0 1.024 6.144 7.168 13.312 14.336 20.48 21.504 5.12 5.12 10.24 10.24 15.36 15.36 11.264 12.288 17.408 25.6 17.408 39.936s-6.144 28.672-17.408 39.936l-63.488 62.464zM712.704 259.584c0 0 0 0 0 0-4.096-5.12-9.216-9.216-14.336-14.336-7.168-7.168-15.36-14.336-22.528-23.552-11.264-12.288-25.6-18.432-44.032-18.432-2.048 0-4.096 0-5.12 0-34.816 2.048-66.56 15.36-90.112 27.648-65.536 31.744-123.904 76.8-171.008 134.144-39.936 48.128-66.56 92.16-83.968 139.264-11.264 28.672-14.336 51.2-13.312 72.704 1.024 13.312 6.144 24.576 16.384 34.816l39.936 39.936c6.144 5.12 11.264 8.192 17.408 8.192 7.168 0 13.312-4.096 17.408-8.192 0 0 0 0 0 0 7.168-6.144 13.312-13.312 20.48-20.48 4.096-4.096 7.168-7.168 11.264-11.264l31.744-31.744c12.288-12.288 12.288-23.552 0-35.84-3.072-3.072-6.144-7.168-10.24-10.24-10.24-10.24-19.456-19.456-28.672-28.672 0 0 0 0-1.024-1.024-10.24-10.24-8.192-19.456-6.144-26.624 0 0 0-1.024 0-1.024 8.192-20.48 19.456-38.912 37.888-61.44v0c31.744-39.936 65.536-70.656 103.424-94.208 5.12-3.072 9.216-5.12 14.336-8.192 4.096-2.048 8.192-4.096 11.264-6.144 0 0 1.024-1.024 1.024-1.024 4.096-2.048 7.168-3.072 11.264-3.072 9.216 0 15.36 6.144 17.408 8.192l39.936 39.936c4.096 4.096 10.24 9.216 17.408 9.216s13.312-4.096 16.384-8.192c0 0 0 0 0 0l64.512-64.512c12.288-11.264 12.288-23.552 1.024-35.84zM533.504 591.36c30.72-5.12 58.368-19.456 79.872-41.984 22.528-22.528 36.864-50.176 41.984-79.872 1.024-7.168 8.192-13.312 15.36-13.312 1.024 0 2.048 0 3.072 0 8.192 1.024 14.336 9.216 13.312 18.432-6.144 36.864-23.552 70.656-50.176 97.28s-60.416 44.032-97.28 50.176c-8.192 1.024-16.384-4.096-18.432-12.288s4.096-16.384 12.288-18.432zM785.408 479.744c-10.24 60.416-38.912 115.712-82.944 159.744s-99.328 72.704-159.744 82.944c-8.192 1.024-16.384-4.096-18.432-12.288-1.024-8.192 4.096-16.384 13.312-18.432 54.272-9.216 103.424-34.816 142.336-73.728s64.512-89.088 73.728-142.336c1.024-7.168 8.192-13.312 15.36-13.312 1.024 0 2.048 0 3.072 0 9.216 1.024 15.36 9.216 13.312 17.408z" />
<glyph unicode="&#xe907;" glyph-name="Call" data-tags="Call" d="M948.224 228.864l-113.664 114.688c-31.744 31.744-82.944 31.744-114.688 0l-52.224-52.224c-23.552-23.552-62.464-23.552-87.040 0l-225.28 226.304c-23.552 23.552-23.552 62.464 0 87.040 8.192 8.192 32.768 32.768 52.224 52.224 31.744 31.744 31.744 82.944 0 114.688l-114.688 113.664c-31.744 31.744-82.944 31.744-114.688 0-23.552-23.552-30.72-30.72-41.984-40.96-113.664-113.664-113.664-299.008 0-412.672l357.376-357.376c113.664-114.688 299.008-114.688 412.672 0l41.984 41.984c31.744 29.696 31.744 80.896 0 112.64zM217.088 847.36c10.24 10.24 27.648 10.24 37.888 0l114.688-114.688c10.24-10.24 10.24-27.648 0-37.888l-19.456-19.456-152.576 152.576 19.456 19.456zM532.48 111.104l-357.376 357.376c-88.064 88.064-93.184 226.304-15.36 320.512l151.552-152.576c-38.912-45.056-36.864-113.664 6.144-156.672l225.28-226.304c43.008-43.008 112.64-45.056 157.696-5.12l151.552-152.576c-93.184-77.824-230.4-73.728-319.488 15.36zM910.336 153.088l-19.456-19.456-152.576 152.576 19.456 19.456c10.24 10.24 27.648 10.24 37.888 0l114.688-114.688c10.24-10.24 10.24-27.648 0-37.888z" />
<glyph unicode="&#xe908;" glyph-name="CashonDelivery" data-tags="Cash on Delivery" d="M523.264 366.080c-149.504 0-271.36 120.832-271.36 271.36s121.856 271.36 271.36 271.36 271.36-120.832 271.36-271.36-120.832-271.36-271.36-271.36zM523.264 880.128c-134.144 0-241.664-108.544-241.664-242.688s107.52-241.664 241.664-241.664 242.688 108.544 242.688 242.688-108.544 241.664-242.688 241.664zM523.264 650.752c-18.432 0-34.816 15.36-34.816 34.816s15.36 34.816 34.816 34.816c18.432 0 34.816-15.36 34.816-34.816h28.672c0 30.72-21.504 54.272-49.152 62.464v23.552h-28.672v-23.552c-28.672-7.168-49.152-31.744-49.152-62.464 0-34.816 28.672-63.488 63.488-63.488 18.432 0 34.816-15.36 34.816-34.816 0-18.432-15.36-34.816-34.816-34.816-18.432 0-34.816 15.36-34.816 34.816h-28.672c0-30.72 21.504-54.272 49.152-62.464v-20.48h28.672v20.48c28.672 7.168 49.152 31.744 49.152 62.464 0 34.816-28.672 63.488-63.488 63.488zM130.048 316.928h28.672v-28.672h-28.672v28.672zM130.048 237.056h28.672v-28.672h-28.672v28.672zM130.048 156.16h28.672v-28.672h-28.672v28.672zM956.416 249.344c-14.336 30.72-49.152 45.056-78.848 32.768l-195.584-66.56c1.024 4.096 1.024 10.24 1.024 15.36 0 37.888-30.72 67.584-67.584 67.584h-146.432c-4.096 0-10.24 1.024-14.336 3.072l-94.208 49.152-1.024 1.024c-8.192 3.072-17.408 4.096-25.6 4.096h-106.496v40.96h-165.888v-345.088h165.888v30.72h35.84l269.312-89.088c10.24-3.072 20.48-6.144 31.744-6.144 15.36 0 31.744 4.096 46.080 11.264l318.464 168.96c28.672 14.336 41.984 50.176 27.648 81.92zM198.656 79.36v0l-107.52-1.024v287.744h108.544l-1.024-286.72zM914.432 190.976l-318.464-167.936c-17.408-8.192-37.888-10.24-56.32-4.096l-272.384 91.136h-39.936v217.088h105.472c6.144 0 10.24-1.024 15.36-3.072l94.208-49.152 1.024-1.024c7.168-3.072 15.36-4.096 24.576-4.096h145.408c21.504 0 38.912-17.408 38.912-38.912 0-11.264-6.144-21.504-13.312-28.672l-27.648-10.24h-117.76c-30.72 0-54.272-24.576-54.272-54.272h28.672c0 14.336 11.264 25.6 25.6 25.6h119.808c14.336 0 27.648 4.096 38.912 13.312l232.448 78.848c17.408 6.144 35.84-1.024 43.008-18.432 9.216-16.384 4.096-37.888-13.312-46.080z" />
<glyph unicode="&#xe909;" glyph-name="close" data-tags="close" horiz-adv-x="1027" d="M602.237 447.828l403.15 403.15c11.613 11.613 18.795 27.655 18.795 45.376 0 35.441-28.73 64.171-64.171 64.171-17.72 0-33.763-7.183-45.376-18.795l-403.15-403.15-403.15 403.15c-11.613 11.613-27.655 18.795-45.376 18.795-35.441 0-64.171-28.73-64.171-64.171 0-17.72 7.183-33.763 18.795-45.376v0l403.579-403.15-403.579-403.15c-11.613-11.613-18.795-27.655-18.795-45.376 0-35.441 28.73-64.171 64.171-64.171 17.72 0 33.763 7.183 45.376 18.795l403.15 403.15 403.15-403.15c11.613-11.613 27.655-18.795 45.376-18.795 35.441 0 64.171 28.73 64.171 64.171 0 17.72-7.183 33.763-18.795 45.376v0z" />
<glyph unicode="&#xe90a;" glyph-name="completed" data-tags="completed" d="M837.632 773.632c-87.040 87.040-202.752 135.168-325.632 135.168s-238.592-48.128-325.632-135.168c-87.040-87.040-135.168-202.752-135.168-325.632s48.128-238.592 135.168-325.632c87.040-87.040 202.752-135.168 325.632-135.168s238.592 48.128 325.632 135.168c87.040 87.040 135.168 202.752 135.168 325.632s-48.128 238.592-135.168 325.632zM512 41.472c-224.256 0-406.528 182.272-406.528 406.528s182.272 406.528 406.528 406.528c224.256 0 406.528-182.272 406.528-406.528s-182.272-406.528-406.528-406.528zM694.272 595.456l-238.592-237.568-125.952 124.928c-10.24 10.24-27.648 10.24-37.888 0s-10.24-27.648 0-37.888l144.384-144.384c5.12-5.12 12.288-8.192 19.456-8.192s13.312 3.072 19.456 8.192l257.024 257.024c10.24 10.24 10.24 27.648 0 37.888-10.24 11.264-27.648 11.264-37.888 0z" />
<glyph unicode="&#xe90b;" glyph-name="delete" data-tags="delete" d="M779.264 798.208h-143.36c-7.168 62.464-60.416 110.592-123.904 110.592s-116.736-48.128-123.904-110.592h-143.36c-58.368 0-105.472-47.104-105.472-105.472v-5.12c0-44.032 27.648-81.92 66.56-98.304v-497.664c0-58.368 47.104-105.472 105.472-105.472h401.408c58.368 0 105.472 47.104 105.472 105.472v498.688c38.912 15.36 66.56 53.248 66.56 98.304v5.12c0 57.344-47.104 104.448-105.472 104.448zM512 858.624c36.864 0 66.56-25.6 73.728-60.416h-147.456c7.168 34.816 36.864 60.416 73.728 60.416zM768 92.672c0-30.72-24.576-55.296-55.296-55.296h-401.408c-30.72 0-55.296 24.576-55.296 55.296v489.472h512v-489.472zM834.56 687.616c0-30.72-24.576-55.296-55.296-55.296h-534.528c-30.72 0-55.296 24.576-55.296 55.296v5.12c0 30.72 24.576 55.296 55.296 55.296h534.528c30.72 0 55.296-24.576 55.296-55.296v-5.12zM377.856 100.864c13.312 0 24.576 11.264 24.576 24.576v281.6c0 13.312-11.264 24.576-24.576 24.576s-24.576-11.264-24.576-24.576v-281.6c0-13.312 11.264-24.576 24.576-24.576zM512 100.864c13.312 0 24.576 11.264 24.576 24.576v281.6c0 13.312-11.264 24.576-24.576 24.576s-24.576-11.264-24.576-24.576v-281.6c0-13.312 11.264-24.576 24.576-24.576zM646.144 100.864c13.312 0 24.576 11.264 24.576 24.576v281.6c0 13.312-11.264 24.576-24.576 24.576s-24.576-11.264-24.576-24.576v-281.6c-1.024-13.312 10.24-24.576 24.576-24.576z" />
<glyph unicode="&#xe90c;" glyph-name="downarrow" data-tags="downarrow" d="M0 694.942c0.042-3.6 0.702-7.032 1.88-10.214l-0.068 0.21c1.391-3.693 3.455-6.846 6.065-9.452v0l484.825-496.246c4.783-4.988 11.501-8.088 18.944-8.088s14.161 3.1 18.935 8.079l0.009 0.009 484.746 496.246c4.903 5.101 7.922 12.044 7.922 19.692s-3.019 14.591-7.931 19.702l0.009-0.009c-4.869 4.993-11.663 8.090-19.18 8.090s-14.311-3.097-19.175-8.085l-0.005-0.006-464.975-477.105-465.841 477.105c-4.783 4.988-11.501 8.088-18.944 8.088s-14.161-3.1-18.935-8.079l-0.009-0.009c-2.612-2.605-4.677-5.758-6.006-9.272l-0.060-0.18c-1.142-3.118-1.805-6.719-1.812-10.473v-0.003z" />
<glyph unicode="&#xe90d;" glyph-name="EasyExchangeReturn" data-tags="Easy Exchange & Return" d="M795.648 630.272l-262.144 145.408c-13.312 7.168-29.696 7.168-43.008 0 0 0 0 0 0 0l-262.144-145.408c-14.336-8.192-22.528-22.528-22.528-38.912v-288.768c0-16.384 8.192-30.72 22.528-38.912l262.144-143.36c7.168-4.096 14.336-5.12 21.504-5.12s14.336 2.048 21.504 5.12l262.144 145.408c14.336 8.192 22.528 22.528 22.528 38.912v287.744c0 15.36-9.216 30.72-22.528 37.888zM507.904 743.936c2.048 1.024 5.12 1.024 8.192 0l104.448-58.368-251.904-139.264-107.52 60.416 246.784 137.216zM493.568 159.232l-247.808 137.216c-2.048 1.024-4.096 4.096-4.096 7.168v273.408l116.736-66.56c0 0 0 0 0 0l135.168-76.8v-274.432zM404.48 525.824l252.928 140.288 108.544-60.416-253.952-141.312-107.52 61.44zM782.336 303.616c0-3.072-2.048-5.12-4.096-7.168l-247.808-137.216v274.432l251.904 139.264v-269.312zM386.048 451.072l-95.232 52.224c-5.12 3.072-12.288 3.072-17.408 0s-9.216-9.216-9.216-15.36v-75.776c0-6.144 3.072-12.288 9.216-15.36l95.232-52.224c3.072-1.024 6.144-2.048 8.192-2.048 3.072 0 6.144 1.024 9.216 2.048 5.12 3.072 9.216 9.216 9.216 15.36v75.776c0 6.144-4.096 12.288-9.216 15.36zM359.424 389.632l-59.392 32.768v34.816l59.392-32.768v-34.816zM460.8 260.608l-48.128 26.624c-9.216 5.12-19.456 2.048-24.576-7.168s-2.048-19.456 7.168-24.576l48.128-26.624c3.072-1.024 6.144-2.048 8.192-2.048 6.144 0 12.288 3.072 15.36 9.216 6.144 8.192 2.048 19.456-6.144 24.576zM888.832 713.216l32.768 32.768c5.12 5.12 7.168 13.312 4.096 19.456-3.072 7.168-9.216 11.264-16.384 11.264h-89.088c-10.24 0-18.432-8.192-18.432-18.432v-89.088c0-7.168 4.096-14.336 11.264-16.384 2.048-1.024 4.096-1.024 7.168-1.024 5.12 0 9.216 2.048 12.288 5.12l30.72 30.72c113.664-166.912 93.184-396.288-50.176-539.648-123.904-123.904-308.224-158.72-468.992-90.112-9.216 4.096-19.456 0-23.552-9.216s0-19.456 9.216-23.552c57.344-25.6 119.808-37.888 182.272-37.888 27.648 0 55.296 2.048 82.944 7.168 92.16 16.384 176.128 60.416 242.688 126.976 78.848 78.848 125.952 183.296 134.144 293.888 7.168 107.52-22.528 211.968-82.944 297.984zM837.632 713.216v27.648h27.648l-27.648-27.648zM291.84 84.48v0c-9.216 5.12-20.48 3.072-25.6-5.12s-2.048-19.456 6.144-24.576h1.024c3.072-2.048 6.144-3.072 9.216-3.072 6.144 0 12.288 3.072 15.36 8.192 5.12 8.192 2.048 19.456-6.144 24.576zM754.688 840.192v0c-9.216 6.144-20.48 3.072-25.6-5.12s-3.072-19.456 6.144-24.576l1.024-1.024c3.072-2.048 6.144-3.072 9.216-3.072 6.144 0 12.288 3.072 15.36 8.192 4.096 9.216 2.048 20.48-6.144 25.6zM694.272 871.936c-83.968 35.84-175.104 46.080-265.216 29.696-92.16-16.384-176.128-61.44-242.688-126.976-78.848-79.872-126.976-184.32-134.144-294.912-7.168-105.472 22.528-210.944 82.944-296.96l-32.768-33.792c-5.12-5.12-7.168-13.312-4.096-19.456 3.072-7.168 9.216-11.264 16.384-11.264h89.088c10.24 0 18.432 8.192 18.432 18.432v89.088c0 7.168-4.096 14.336-11.264 16.384-7.168 3.072-14.336 1.024-19.456-4.096l-30.72-30.72c-113.664 167.936-93.184 397.312 51.2 540.672 123.904 123.904 307.2 158.72 467.968 90.112 9.216-4.096 19.456 0 23.552 9.216s-1.024 20.48-9.216 24.576zM186.368 182.784v-27.648h-27.648l27.648 27.648z" />
<glyph unicode="&#xe90e;" glyph-name="edit" data-tags="edit" d="M1016.065 759.799l-95.509-95.509-194.030 194.176-73.468-73.468 194.103-194.25-476.001-476.294-194.103 194.176-73.468-73.468 194.103-194.25-47.46-47.46-0.882 0.882c-5.293-8.615-13.741-14.855-23.698-17.143l-0.253-0.049-181.026-40.408c-2.45-0.558-5.264-0.879-8.153-0.882h-0.002c-20.788 0.035-37.627 16.896-37.627 37.689 0 2.89 0.325 5.704 0.941 8.408l-0.048-0.253 40.334 181.099c2.346 10.224 8.615 18.677 17.1 23.857l0.165 0.094-0.882 0.955 765.98 766.641c5.218 5.186 12.41 8.391 20.351 8.391s15.132-3.205 20.352-8.393l153.401-153.474c5.249-5.218 8.497-12.443 8.497-20.426 0-8.092-3.337-15.405-8.711-20.637l-0.006-0.006z" />
<glyph unicode="&#xe90f;" glyph-name="email" data-tags="email" d="M744.448 681.472h-464.896c-40.96 0-74.752-33.792-74.752-74.752v-317.44c0-40.96 33.792-74.752 74.752-74.752h463.872c40.96 0 74.752 33.792 74.752 74.752v317.44c1.024 40.96-32.768 74.752-73.728 74.752zM785.408 289.28c0-22.528-18.432-40.96-40.96-40.96h-464.896c-22.528 0-40.96 18.432-40.96 40.96v317.44c0 22.528 18.432 40.96 40.96 40.96h463.872c22.528 0 40.96-18.432 40.96-40.96l1.024-317.44zM591.872 452.096l150.528 135.168c7.168 6.144 7.168 17.408 1.024 24.576-6.144 6.144-16.384 7.168-23.552 0l-207.872-185.344-39.936 35.84c0 0 0 0 0 0-1.024 1.024-2.048 2.048-3.072 2.048l-164.864 148.48c-7.168 6.144-18.432 6.144-24.576-1.024s-6.144-18.432 1.024-24.576l151.552-136.192-150.528-142.336c-7.168-6.144-7.168-17.408-1.024-24.576 3.072-3.072 8.192-5.12 12.288-5.12s8.192 1.024 11.264 4.096l153.6 143.36 41.984-36.864c3.072-3.072 7.168-4.096 11.264-4.096s8.192 1.024 11.264 4.096l43.008 37.888 154.624-143.36c3.072-3.072 7.168-5.12 12.288-5.12 4.096 0 9.216 2.048 12.288 5.12 6.144 7.168 6.144 17.408-1.024 24.576l-151.552 143.36z" />
<glyph unicode="&#xe910;" glyph-name="uniE910" data-tags="uniE910" d="M972.8 448c0-254.493-206.307-460.8-460.8-460.8s-460.8 206.307-460.8 460.8c0 254.493 206.307 460.8 460.8 460.8s460.8-206.307 460.8-460.8z" />
<glyph unicode="&#xe911;" glyph-name="uniE911" data-tags="uniE911" d="M627.712 429.568h-81.92v-301.056h-124.928v301.056h-59.392v106.496h59.392v68.608c0 49.152 23.552 125.952 125.952 125.952h92.16v-102.4h-66.56c-11.264 0-26.624-5.12-26.624-28.672v-62.464h93.184l-11.264-107.52z" />
<glyph unicode="&#xe912;" glyph-name="facebook" data-tags="facebook" d="M548.864 157.184v290.816h72.704l36.864 91.136h-109.568v72.704c0 20.48 16.384 36.864 36.864 36.864h36.864v91.136h-72.704c-60.416 0-109.568-49.152-109.568-109.568v-91.136h-72.704v-91.136h72.704v-290.816z" />
<glyph unicode="&#xe913;" glyph-name="FreeFastDelivery" data-tags="Free Fast Delivery" d="M70.656 242.176h63.488c9.216-54.272 56.32-96.256 113.664-96.256s104.448 41.984 113.664 96.256h277.504c9.216-54.272 56.32-96.256 113.664-96.256s104.448 41.984 113.664 96.256h88.064c10.24 0 19.456 8.192 19.456 19.456v143.36c0 25.6-10.24 51.2-29.696 68.608l-38.912 37.888c-2.048 2.048-4.096 3.072-6.144 4.096l-66.56 101.376c-17.408 26.624-47.104 43.008-79.872 43.008h-89.088c-2.048 50.176-44.032 91.136-95.232 91.136h-497.664c-10.24 0-19.456-8.192-19.456-19.456v-470.016c0-11.264 8.192-19.456 19.456-19.456zM247.808 183.808c-41.984 0-76.8 34.816-76.8 76.8s34.816 76.8 76.8 76.8 76.8-34.816 76.8-76.8c0-41.984-34.816-76.8-76.8-76.8zM752.64 183.808c-41.984 0-76.8 34.816-76.8 76.8s34.816 76.8 76.8 76.8c41.984 0 76.8-34.816 76.8-76.8-1.024-41.984-34.816-76.8-76.8-76.8zM799.744 595.456l52.224-78.848h-189.44v104.448h89.088c19.456 0 36.864-9.216 48.128-25.6zM89.088 712.192h477.184c31.744 0 57.344-25.6 57.344-57.344v-156.672c0-10.24 8.192-19.456 19.456-19.456h240.64l33.792-32.768c11.264-11.264 17.408-25.6 17.408-40.96v-124.928h-69.632c-9.216 54.272-56.32 95.232-112.64 95.232s-103.424-40.96-112.64-95.232h-279.552c-9.216 54.272-56.32 95.232-112.64 95.232s-103.424-40.96-112.64-95.232h-46.080v432.128zM324.608 439.808c4.096-4.096 8.192-6.144 13.312-6.144 0 0 0 0 0 0 5.12 0 10.24 2.048 13.312 6.144l167.936 168.96c7.168 7.168 7.168 19.456 0 26.624s-19.456 7.168-26.624 0l-154.624-154.624-83.968 84.992c-7.168 7.168-19.456 7.168-26.624 0s-7.168-19.456 0-26.624l97.28-99.328z" />
<glyph unicode="&#xe914;" glyph-name="uniE914" data-tags="uniE914" d="M275.456 361.984l-31.744-119.808-117.76-2.048c-34.816 64.512-54.272 139.264-54.272 218.112 0 76.8 18.432 148.48 51.2 211.968v0l104.448-19.456 46.080-103.424c-9.216-27.648-15.36-58.368-15.36-89.088 0-33.792 6.144-66.56 17.408-96.256z" />
<glyph unicode="&#xe915;" glyph-name="uniE915" data-tags="uniE915" d="M985.088 544.256c5.12-27.648 8.192-56.32 8.192-86.016 0-32.768-3.072-65.536-10.24-96.256-22.528-105.472-80.896-197.632-161.792-263.168v0l-131.072 7.168-18.432 115.712c54.272 31.744 96.256 80.896 117.76 140.288h-246.784v182.272h442.368z" />
<glyph unicode="&#xe916;" glyph-name="uniE916" data-tags="uniE916" d="M821.248 98.816v0c-78.848-63.488-179.2-101.376-288.768-101.376-175.104 0-327.68 98.304-405.504 242.688l149.504 121.856c37.888-103.424 138.24-178.176 256-178.176 50.176 0 97.28 13.312 138.24 37.888l150.528-122.88z" />
<glyph unicode="&#xe917;" glyph-name="uniE917" data-tags="uniE917" d="M826.368 812.544l-149.504-121.856c-41.984 26.624-92.16 40.96-144.384 40.96-119.808 0-222.208-77.824-259.072-185.344l-150.528 123.904c76.8 147.456 231.424 248.832 409.6 248.832 111.616 0 214.016-39.936 293.888-106.496z" />
<glyph unicode="&#xe918;" glyph-name="instagram" data-tags="instagram" d="M615.424 704h-206.848c-83.968 0-152.576-68.608-152.576-152.576v-206.848c0-83.968 68.608-152.576 152.576-152.576h206.848c83.968 0 152.576 68.608 152.576 152.576v206.848c0 83.968-68.608 152.576-152.576 152.576zM716.8 344.576c0-55.296-45.056-101.376-101.376-101.376h-206.848c-55.296 0-101.376 45.056-101.376 101.376v206.848c0 55.296 45.056 101.376 101.376 101.376h206.848c55.296 0 101.376-45.056 101.376-101.376v-206.848zM512 580.096c-72.704 0-132.096-59.392-132.096-132.096s59.392-132.096 132.096-132.096 132.096 59.392 132.096 132.096-59.392 132.096-132.096 132.096zM512 367.104c-45.056 0-80.896 35.84-80.896 80.896s35.84 80.896 80.896 80.896c45.056 0 80.896-35.84 80.896-80.896s-35.84-80.896-80.896-80.896zM676.864 579.072c0-17.532-14.212-31.744-31.744-31.744s-31.744 14.212-31.744 31.744c0 17.532 14.212 31.744 31.744 31.744s31.744-14.212 31.744-31.744z" />
<glyph unicode="&#xe919;" glyph-name="instagrame" data-tags="instagrame" d="M512.24 610.789c-90.039 0-163.029-72.991-163.029-163.029s72.991-163.029 163.029-163.029c90.039 0 163.029 72.991 163.029 163.029 0 0.028 0 0.056 0 0.084v-0.004c-0.137 89.968-73.056 162.858-163.021 162.949h-0.008zM834.053 960.561h-643.625c-105.391-0.182-190.772-85.592-190.908-190.976v-643.558c0.137-105.381 85.528-190.772 190.895-190.908h643.558c105.381 0.137 190.772 85.528 190.908 190.895v643.558c-0.137 105.397-85.518 190.806-190.891 190.989h-0.018zM512.24 224.726c-123.222 0-223.114 99.891-223.114 223.114s99.891 223.114 223.114 223.114c123.222 0 223.114-99.891 223.114-223.114v0c-0.137-123.167-99.946-222.977-223.101-223.114h-0.013zM823.077 716.217c-5.418-5.4-12.894-8.739-21.15-8.739-16.548 0-29.962 13.415-29.962 29.962s13.415 29.962 29.962 29.962c16.545 0 29.958-13.411 29.962-29.955v0c-0.013-8.317-3.377-15.846-8.814-21.311l0.001 0.001z" />
<glyph unicode="&#xe91a;" glyph-name="mail" data-tags="mail" d="M83.172 578.844c68.246-19.008 127.31-42.571 183.089-71.579l-5.197 2.459q82.603-57.458 126.635-88.462c3.243-2.219 10.069-7.225 20.594-14.791s19.115-13.71 26.055-18.432 15.303-9.956 25.202-15.758c7.95-4.935 17.116-9.353 26.755-12.773l1.007-0.311c7.179-2.638 15.469-4.231 24.111-4.38l0.066-0.001h0.967c8.729 0.154 17.038 1.746 24.767 4.549l-0.532-0.169c10.655 3.762 19.819 8.178 28.401 13.45l-0.639-0.365q14.791 8.704 25.145 15.758t26.112 18.432c10.468 7.623 17.067 12.572 20.537 14.791 120.031 52.375 220.173 105.074 316.108 163.958l-11.070-6.319c23.309 16.326 42.898 36.132 58.487 58.893l0.507 0.783c14.646 20.372 23.501 45.767 23.722 73.219v0.054c-0.382 42.598-34.78 77.037-77.327 77.482h-869.304c-1.162 0.070-2.52 0.11-3.888 0.11-21.501 0-40.705-9.833-53.36-25.248l-0.096-0.121c-12.532-16.297-20.084-36.99-20.084-59.447 0-1.201 0.022-2.397 0.064-3.588l-0.005 0.172c1.641-25.442 11.408-48.329 26.704-66.384l-0.137 0.166c15.81-21.903 34.54-40.488 55.869-55.653l0.735-0.496zM975.644 526.962c-105.756-71.737-264.761-127.545-319.545-167.31q-27.534-20.366-44.772-31.744c-13.013-8.449-27.988-16.275-43.697-22.671l-1.814-0.653c-15.628-7.101-33.847-11.432-53.025-11.887l-0.166-0.003h-0.967c-19.345 0.464-37.563 4.795-54.070 12.245l0.879-0.355c-17.53 7.067-32.504 14.892-46.59 23.976l1.079-0.651q-17.067 11.378-44.715 31.744c-43.52 32.028-202.411 87.78-319.090 167.31-18.616 12.419-34.747 26.4-48.949 42.154l-0.203 0.229v-385.081c0.064-42.75 34.637-77.403 77.35-77.596h869.28c42.719 0.226 77.273 34.86 77.369 77.587v385.090c-14.257-15.808-30.115-29.715-47.451-41.625l-0.904-0.587z" />
<glyph unicode="&#xe91b;" glyph-name="menu" data-tags="menu" d="M46.313 820.41h928.209c1.246 0.119 2.695 0.186 4.159 0.186 25.706 0 46.545-20.839 46.545-46.545s-20.839-46.545-46.545-46.545c-1.464 0-2.913 0.068-4.342 0.2l0.183-0.014h-928.209c-23.854 2.204-42.386 22.117-42.386 46.359s18.533 44.156 42.203 46.346l0.183 0.014zM46.313 495.895h928.209c1.246 0.119 2.695 0.186 4.159 0.186 25.706 0 46.545-20.839 46.545-46.545s-20.839-46.545-46.545-46.545c-1.464 0-2.913 0.068-4.342 0.2l0.183-0.014h-928.209c-23.854 2.204-42.386 22.117-42.386 46.359s18.533 44.156 42.203 46.346l0.183 0.014zM46.313 171.38h928.209c23.854-2.204 42.386-22.117 42.386-46.359s-18.533-44.156-42.203-46.346l-0.183-0.014h-928.209c-23.854 2.204-42.386 22.117-42.386 46.359s18.533 44.156 42.203 46.346l0.183 0.014z" />
<glyph unicode="&#xe91c;" glyph-name="minus" data-tags="minus" d="M1027.482 542.618c-15.393 3.249-33.079 5.11-51.2 5.11s-35.807-1.86-52.879-5.401l1.679 0.291h-816.947c-15.392 3.274-33.077 5.149-51.2 5.149s-35.808-1.875-52.872-5.441l1.672 0.292c-13.517-13.517 0-13.107 0-32.461v-139.059c0-19.354-13.414-19.046 0-32.461 15.393-3.248 33.079-5.108 51.2-5.108s35.808 1.86 52.879 5.399l-1.679-0.291h816.947c15.334 1.33 33.178 2.088 51.2 2.088s35.866-0.758 53.504-2.244l-2.304 0.156c13.517 13.414 0 13.107 0 32.461v139.059c0.102 19.354 13.517 18.944 0 32.461z" />
<glyph unicode="&#xe91d;" glyph-name="plus" data-tags="plus" d="M1018.014 549.71c-15.251 3.219-32.774 5.063-50.728 5.063s-35.477-1.843-52.391-5.351l1.663 0.288h-303.558v303.152c0 19.074 0.812 87.658 0 101.456-45.047 0.71-12.986 0-32.162 0h-137.981c-19.175 0-18.769 13.189-32.162 0-3.226-15.251-5.073-32.774-5.073-50.728s1.847-35.478 5.362-52.39l-0.289 1.661v-303.152h-303.558c-15.251 3.218-32.774 5.061-50.728 5.061s-35.478-1.843-52.392-5.349l1.664 0.288c-13.392-13.392 0-12.986 0-32.162v-137.778c0-19.175-13.291-18.871 0-32.162 15.251-3.218 32.774-5.061 50.728-5.061s35.478 1.843 52.392 5.349l-1.664-0.288h303.558v-303.152c-3.226-15.251-5.073-32.774-5.073-50.728s1.847-35.478 5.362-52.39l-0.289 1.661c13.392-13.392 12.986 0 32.162 0h137.981c19.175 0 18.769-13.291 32.162 0-2.333 16.537 0 81.875 0 101.456v303.152h303.558c15.192 1.317 32.873 2.069 50.728 2.069s35.536-0.751 53.011-2.223l-2.282 0.155c13.392 13.291 0 12.986 0 32.162v137.778c0.101 19.175 13.392 18.769 0 32.162z" />
<glyph unicode="&#xe91e;" glyph-name="QuickView" data-tags="Quick View" d="M966.656 465.408c-8.192 11.264-204.8 273.408-454.656 273.408-250.88 0-446.464-262.144-454.656-273.408-8.192-10.24-8.192-24.576 0-35.84s204.8-273.408 454.656-273.408c250.88 0 446.464 262.144 454.656 273.408s8.192 25.6 0 35.84zM512 217.6c-184.32 0-344.064 174.080-392.192 230.4 47.104 57.344 206.848 230.4 392.192 230.4 184.32 0 344.064-174.080 392.192-230.4-48.128-57.344-206.848-230.4-392.192-230.4zM512 628.224c-100.352 0-182.272-80.896-182.272-180.224s81.92-180.224 182.272-180.224c100.352 0 182.272 80.896 182.272 180.224s-81.92 180.224-182.272 180.224zM512 327.168c-66.56 0-121.856 54.272-121.856 120.832s54.272 120.832 121.856 120.832c66.56 0 121.856-54.272 121.856-120.832s-55.296-120.832-121.856-120.832z" />
<glyph unicode="&#xe91f;" glyph-name="Search" data-tags="Search" d="M1011.443 8.812l-246.137 246.137c60.824 73.765 97.71 169.24 97.71 273.33 0 238.122-193.036 431.158-431.158 431.158s-431.158-193.036-431.158-431.158c0-238.122 193.036-431.158 431.158-431.158 103.955 0 199.317 36.79 273.777 98.060l-0.745-0.595 246.191-245.976c7.763-8.028 18.63-13.011 30.661-13.011 23.544 0 42.631 19.086 42.631 42.631 0 11.991-4.951 22.825-12.919 30.571l-0.010 0.010zM431.535 182.838c-190.898 0.062-345.627 154.829-345.627 345.735 0 190.944 154.791 345.735 345.735 345.735s345.735-154.791 345.735-345.735c0-0.038 0-0.076 0-0.114v0.006c-0.276-190.849-154.977-345.474-345.828-345.627h-0.014z" />
<glyph unicode="&#xe920;" glyph-name="ShoppingBag" data-tags="Shopping Bag" d="M857.088 148.992l-38.912 518.144c-2.048 33.792-28.672 59.392-60.416 59.392h-76.8v4.096c0 98.304-75.776 178.176-168.96 178.176s-168.96-79.872-168.96-178.176v-4.096h-76.8c-31.744 0-58.368-26.624-60.416-59.392l-38.912-519.168c-3.072-41.984 10.24-82.944 37.888-113.664 26.624-30.72 64.512-48.128 104.448-48.128h407.552c38.912 0 77.824 17.408 104.448 48.128 25.6 31.744 38.912 72.704 35.84 114.688zM394.24 730.624c0 68.608 52.224 123.904 117.76 123.904 64.512 0 117.76-55.296 117.76-123.904v-4.096h-235.52v4.096zM782.336 72.192c-17.408-19.456-40.96-30.72-66.56-30.72h-407.552c-25.6 0-49.152 11.264-66.56 30.72s-25.6 46.080-23.552 72.704l38.912 518.144c0 5.12 5.12 9.216 10.24 9.216h76.8v-66.56c0-15.36 11.264-26.624 25.6-26.624s25.6 12.288 25.6 26.624v67.584h234.496v-66.56c0-15.36 11.264-26.624 25.6-26.624s25.6 12.288 25.6 26.624v66.56h76.8c5.12 0 9.216-4.096 10.24-10.24l38.912-518.144c1.024-27.648-7.168-53.248-24.576-72.704z" />
<glyph unicode="&#xe921;" glyph-name="toparrow" data-tags="toparrow" d="M0 200.901c0.031 3.604 0.722 7.038 1.958 10.199l-0.067-0.195c1.419 3.708 3.538 6.865 6.215 9.445l496.254 496.254c4.942 4.995 11.799 8.089 19.377 8.089s14.435-3.093 19.375-8.086l496.248-496.248c4.975-5.010 8.050-11.914 8.050-19.535 0-15.291-12.378-27.691-27.66-27.727h-0.003c-0.193-0.005-0.421-0.008-0.649-0.008-7.436 0-14.169 3.013-19.043 7.885v0l-476.554 477.105-476.239-476.869c-4.942-4.995-11.799-8.089-19.377-8.089s-14.435 3.093-19.375 8.086l-0.002 0.002c-2.687 2.586-4.806 5.743-6.164 9.277l-0.059 0.175c-1.291 3.013-2.114 6.508-2.282 10.174l-0.002 0.066z" />
<glyph unicode="&#xe922;" glyph-name="twitter" data-tags="twitter" d="M898.121 647.461c40.403 30.162 74.694 65.709 102.588 106.020l0.982 1.5c-33.97-15.399-73.399-27.025-114.674-32.931l-2.354-0.276c42.198 25.544 73.88 64.84 89.121 111.566l0.406 1.44c-37.726-22.271-81.607-39.236-128.279-48.425l-2.647-0.434c-19.025 19.025-41.337 34.762-66.012 46.286l-1.426 0.598c-23.844 11.138-51.769 17.636-81.213 17.636-0.66 0-1.319-0.003-1.978-0.010l0.101 0.001c-0.336 0.002-0.732 0.003-1.129 0.003-37.045 0-71.715-10.166-101.373-27.86l0.907 0.501c-31.166-18.307-56.323-43.792-73.721-74.277l-0.519-0.987c-17.198-29.225-27.356-64.379-27.356-101.905 0-0.174 0-0.348 0.001-0.522v0.027c0-0.005 0-0.011 0-0.017 0-16.554 1.41-32.778 4.117-48.56l-0.24 1.692c-170.937 8.133-321.286 89.843-421.095 213.927l-0.866 1.113c-18.516-29.659-29.496-65.678-29.496-104.262 0-35.635 9.365-69.082 25.769-98.015l-0.515 0.988c16.842-29.798 39.136-54.591 65.742-73.779l0.672-0.461c-34.101 1.359-65.603 11.353-92.723 27.839l0.856-0.483v-3.877c-0.001-0.28-0.002-0.61-0.002-0.941 0-49.038 17.94-93.887 47.615-128.34l-0.216 0.257c29.105-35.931 69.458-61.733 115.65-72.079l1.379-0.259c-16.438-3.704-35.321-5.835-54.699-5.851h-0.012q-17.554 0-37.157 1.975c13.423-41.15 38.285-75.489 70.816-100.28l0.498-0.364c31.975-25.012 72.758-40.108 117.067-40.108 1.092 0 2.182 0.009 3.27 0.027l-0.164-0.002c-68.666-54.712-156.685-87.787-252.429-87.787-1.255 0-2.509 0.006-3.762 0.017l0.191-0.001q-27.355 0-48.859 1.975c87.636-57.826 195.147-92.249 310.698-92.249 1.496 0 2.991 0.006 4.485 0.017l-0.23-0.001c2.952-0.056 6.433-0.087 9.922-0.087 114.82 0 221.624 34.319 310.714 93.26l-2.099-1.305c84.316 54.909 151.496 129.568 196.023 217.628l1.463 3.19c42.839 78.625 68.131 172.157 68.388 271.574v0.079c0.023 0.868 0.037 1.891 0.037 2.916 0 8.027-0.812 15.864-2.359 23.434l0.128-0.75z" />
<glyph unicode="&#xe923;" glyph-name="Wishlist" data-tags="Wishlist" d="M905.216 799.232c-45.056 55.296-108.544 84.992-177.152 84.992-97.28 0-158.72-62.464-193.536-114.688-9.216-13.312-16.384-26.624-22.528-39.936-6.144 12.288-14.336 26.624-22.528 39.936-34.816 52.224-96.256 114.688-193.536 114.688-68.608 0-132.096-30.72-177.152-86.016-44.032-52.224-67.584-122.88-67.584-198.656 0-81.92 29.696-158.72 94.208-240.64 57.344-73.728 140.288-148.48 235.52-236.544 35.84-32.768 72.704-66.56 111.616-103.424l1.024-1.024c5.12-5.12 11.264-7.168 17.408-7.168s12.288 2.048 17.408 7.168l1.024 1.024c38.912 36.864 75.776 70.656 111.616 103.424 95.232 87.040 178.176 162.816 235.52 236.544 64.512 81.92 94.208 158.72 94.208 240.64 2.048 75.776-21.504 146.432-65.536 199.68zM608.256 167.424c-30.72-27.648-62.464-57.344-96.256-88.064-33.792 30.72-64.512 60.416-95.232 88.064-187.392 171.008-311.296 283.648-311.296 432.128 0 61.44 19.456 118.784 54.272 160.768 34.816 43.008 83.968 66.56 137.216 66.56 73.728 0 121.856-49.152 149.504-90.112 24.576-36.864 36.864-73.728 40.96-88.064 4.096-12.288 14.336-20.48 25.6-20.48s22.528 8.192 25.6 20.48c4.096 14.336 17.408 51.2 40.96 88.064 26.624 40.96 74.752 90.112 149.504 90.112 53.248 0 102.4-23.552 137.216-66.56 34.816-41.984 53.248-99.328 53.248-160.768-1.024-148.48-124.928-261.12-311.296-432.128z" />
<glyph unicode="&#xe924;" glyph-name="five-product" data-tags="five-product" horiz-adv-x="2432" d="M2048-64v448h384v-384c0-35.346-28.654-64-64-64v0zM1536-64v448h384v-448zM1024-64v448h384v-448zM512-64v448h384v-448zM64-64c-35.346 0-64 28.654-64 64v0 384h384v-448zM2048 512v448h320c35.346 0 64-28.654 64-64v0-384zM1536 512v448h384v-448zM1024 512v448h384v-448zM512 512v448h384v-448zM0 512v384c0 35.346 28.654 64 64 64v0h320v-448z" />
<glyph unicode="&#xe925;" glyph-name="three-product" data-tags="three-product" horiz-adv-x="1792" d="M1280-64v1024h448c35.346 0 64-28.654 64-64v0-896c0-35.346-28.654-64-64-64v0zM640-64v1024h512v-1024zM64-64c-35.346 0-64 28.654-64 64v0 896c0 35.346 28.654 64 64 64v0h448v-1024z" />
<glyph unicode="&#xe926;" glyph-name="printer-logo" data-tags="printer-logo" d="M256 160v-192h512v320h-512v-128zM320 224h384v-64h-384v64zM320 96h384v-64h-384v64zM768 736v192h-512v-320h512zM896 736h-64v-192h-640v192h-64c-64 0-128-64-128-128v-320c0-64 64-128 128-128h64v192h640v-192h64c64 0 128 64 128 128v320c0 64-64 128-128 128z" />
<glyph unicode="&#xe927;" glyph-name="lock" data-tags="lock" d="M874.666 576h-64v85.334c0 164.686-133.978 298.666-298.666 298.666s-298.666-133.98-298.666-298.666v-85.334h-64c-11.792 0-21.334-9.542-21.334-21.334v-533.334c0-47.062 38.27-85.332 85.334-85.332h597.334c47.062 0 85.332 38.27 85.332 85.334v533.332c0 11.792-9.542 21.334-21.334 21.334zM575.876 130.354c0.666-6.020-1.27-12.062-5.312-16.584-4.042-4.52-9.834-7.104-15.896-7.104h-85.334c-6.062 0-11.854 2.584-15.896 7.104s-5.98 10.562-5.312 16.584l13.458 121.020c-21.854 15.896-34.916 41.042-34.916 68.626 0 47.062 38.27 85.334 85.334 85.334s85.334-38.27 85.334-85.334c0-27.584-13.062-52.73-34.916-68.626l13.456-121.020zM682.666 576h-341.332v85.334c0 94.104 76.562 170.666 170.666 170.666s170.666-76.562 170.666-170.666v-85.334z" />
<glyph unicode="&#xe928;" glyph-name="round-done-button" data-tags="round-done-button" d="M511.99 960c-282.324 0-511.99-229.683-511.99-512s229.665-512 511.99-512 512.010 229.683 512.010 512-229.686 512-512.010 512zM511.99 3.149c-245.289 0-444.841 199.562-444.841 444.851 0 245.292 199.549 444.849 444.841 444.849s444.854-199.56 444.854-444.849c0.003-245.289-199.565-444.851-444.854-444.851zM697.359 615.613l-264.015-264.003-106.724 106.701c-13.115 13.1-34.36 13.107-47.475-0.008-13.12-13.12-13.12-34.368 0-47.483l130.465-130.445c6.556-6.548 15.145-9.825 23.734-9.825s17.201 3.277 23.754 9.836c0.020 0.028 0.036 0.056 0.069 0.090l287.665 287.662c13.12 13.107 13.12 34.371 0 47.478-13.112 13.115-34.373 13.115-47.473-0.003z" />
<glyph unicode="&#xe929;" glyph-name="filter-filled-tool-symbol" data-tags="filter-filled-tool-symbol" d="M390.027 476.121c10.746-11.694 16.646-26.97 16.646-42.773v-465.653c0-28.025 33.818-42.247 53.835-22.545l129.898 148.861c17.383 20.86 26.97 31.185 26.97 51.833v287.398c0 15.803 6.005 31.079 16.646 42.774l372.732 404.443c27.918 30.341 6.427 79.54-34.871 79.54h-919.717c-41.298 0-62.895-49.094-34.871-79.54l372.734-404.338z" />
<glyph unicode="&#xe92a;" glyph-name="sort" data-tags="sort" d="M376.297 141.879c22.953 0 41.732 18.779 41.732 41.732v734.483c0 15.998-9.041 30.604-22.953 37.559s-31.299 5.565-43.819-4.173l-272.65-204.487c-18.779-13.911-22.258-39.645-8.346-58.425s39.645-22.258 58.425-8.346l205.879 154.408v-651.019c0-22.953 18.779-41.732 41.732-41.732zM647.555 746.993c-22.953 0-41.732-18.779-41.732-41.732v-727.529c0-15.998 9.041-29.907 22.953-37.559 6.26-2.781 12.52-4.173 18.779-4.173 9.041 0 17.388 2.781 25.039 8.346l272.65 201.008c18.779 13.911 22.258 39.645 9.041 58.425-13.911 18.779-39.645 22.258-58.425 9.041l-206.573-152.322v644.759c0 22.955-18.779 41.734-41.732 41.734z" />
</font>
</defs>
</svg>
